<?xml version="1.0" encoding="utf-8"?><svg xmlns="http://www.w3.org/2000/svg" xmlns:xlink="http://www.w3.org/1999/xlink"><symbol viewBox="0 0 28 28" id="icon-close" xmlns="http://www.w3.org/2000/svg"><path d="m22.167 7.478-1.645-1.645L14 12.355 7.478 5.833 5.833 7.478 12.355 14l-6.522 6.522 1.645 1.645L14 15.645l6.522 6.522 1.645-1.645L15.645 14l6.522-6.522Z"/></symbol><symbol viewBox="0 0 16 16" id="icon-facebook" xmlns="http://www.w3.org/2000/svg"><path d="M10.073 3.547h1.254v-2.12A17.407 17.407 0 0 0 9.5 1.334c-1.813 0-3.053 1.106-3.053 3.133v1.747H4.4v2.373h2.047v6.08H8.9v-6.08h2.04l.307-2.373H8.9V4.7c0-.7.187-1.153 1.173-1.153Z"/></symbol><symbol viewBox="0 0 20 20" id="icon-globus" xmlns="http://www.w3.org/2000/svg"><path d="M17.712 4.649C15.998 2.3 13.752.969 10.794.625A14.607 14.607 0 0 1 13.737 5.9c1.383-.286 2.693-.659 3.975-1.251ZM5.313 6.904c-.525-.138-1.036-.271-1.538-.426-.45-.145-.892-.311-1.335-.477-.25-.094-.5-.187-.751-.277-1.486 2.612-1.347 6.32-.008 8.508.749-.235 1.491-.47 2.24-.708h.002l2.04-.645a14.34 14.34 0 0 1 .008-5.802c-.223-.06-.442-.117-.658-.173ZM16.182 6.448c-.713.227-1.428.454-2.145.68.395 1.917.38 3.863 0 5.743 1.45.461 2.862.907 4.29 1.354 1.405-2.407 1.39-6.065 0-8.457l-2.145.68ZM7.15 12.784c-.41-1.859-.396-3.68-.023-5.502.299.018.592.039.881.06.677.047 1.333.094 1.989.094.655 0 1.311-.047 1.987-.095.29-.02.584-.041.882-.059.402 1.793.388 3.629-.007 5.494-1.918-.248-3.792-.263-5.71.008ZM17.712 15.344c-1.699 2.348-3.953 3.673-6.91 4.031 1.361-1.595 2.335-3.321 2.928-5.267 1.376.263 2.679.658 3.982 1.236ZM9.199.625C6.242.976 3.987 2.308 2.23 4.729c1.376.424 2.672.827 4.012 1.244C6.864 3.946 7.83 2.227 9.199.625ZM9.199 19.375c-2.95-.351-5.197-1.675-6.969-4.104l1.296-.4h.002c.91-.282 1.802-.558 2.714-.836a14.59 14.59 0 0 0 2.957 5.34ZM12.551 6.075a13.015 13.015 0 0 0-2.555-4.58c-1.17 1.383-2.02 2.876-2.547 4.58 1.72.227 3.39.234 5.102 0ZM10.004 18.504a12.92 12.92 0 0 1-2.555-4.572 18.67 18.67 0 0 1 5.11-.007 13.21 13.21 0 0 1-2.555 4.58Z"/></symbol><symbol viewBox="0 0 16 16" id="icon-instagram" xmlns="http://www.w3.org/2000/svg"><path d="M8 1.5c1.766 0 1.986.006 2.68.039.691.032 1.163.141 1.578.302.429.165.79.389 1.151.75.33.325.587.718.75 1.151.16.415.27.886.302 1.579.03.693.039.913.039 2.679 0 1.766-.007 1.986-.039 2.68-.033.691-.142 1.163-.302 1.578a3.174 3.174 0 0 1-.75 1.151c-.325.33-.718.586-1.152.75-.414.16-.886.27-1.578.302-.693.03-.913.039-2.679.039-1.766 0-1.986-.007-2.68-.039-.692-.033-1.163-.142-1.578-.302a3.178 3.178 0 0 1-1.151-.75 3.187 3.187 0 0 1-.75-1.152c-.16-.414-.27-.886-.302-1.578C1.509 9.986 1.5 9.766 1.5 8c0-1.766.006-1.986.039-2.68.032-.692.141-1.163.302-1.578.163-.434.419-.827.75-1.151.324-.331.718-.587 1.151-.75.415-.16.886-.27 1.579-.302.693-.03.913-.039 2.679-.039Zm0 3.25a3.25 3.25 0 1 0 0 6.5 3.25 3.25 0 0 0 0-6.5Zm4.225-.162a.812.812 0 1 0-1.625 0 .812.812 0 0 0 1.625 0ZM8 6.05a1.95 1.95 0 1 1 0 3.9 1.95 1.95 0 0 1 0-3.9Z"/></symbol><symbol viewBox="0 0 16 16" id="icon-linkedin" xmlns="http://www.w3.org/2000/svg"><path d="M1.875 2.752c0-.484.403-.877.9-.877h10.45c.497 0 .9.393.9.877v10.496a.889.889 0 0 1-.9.877H2.775a.889.889 0 0 1-.9-.877V2.752Zm3.784 9.378V6.598H3.821v5.532H5.66Zm-.918-6.288c.64 0 1.04-.424 1.04-.955-.012-.543-.399-.956-1.028-.956-.63 0-1.04.414-1.04.956 0 .531.398.955 1.015.955h.013Zm3.757 6.288V9.04c0-.165.013-.33.062-.448.132-.33.435-.672.943-.672.665 0 .93.506.93 1.25v2.96h1.84V8.957c0-1.7-.907-2.49-2.117-2.49-.975 0-1.413.536-1.658.914V7.4h-.012l.012-.02v-.782H6.661c.023.52 0 5.532 0 5.532h1.837Z"/></symbol><symbol viewBox="0 0 28 28" id="icon-menu" xmlns="http://www.w3.org/2000/svg"><path d="M4.667 21h18.666a1.17 1.17 0 0 0 1.167-1.167 1.17 1.17 0 0 0-1.167-1.166H4.667A1.17 1.17 0 0 0 3.5 19.833 1.17 1.17 0 0 0 4.667 21Zm0-5.833h18.666A1.17 1.17 0 0 0 24.5 14a1.17 1.17 0 0 0-1.167-1.167H4.667A1.17 1.17 0 0 0 3.5 14a1.17 1.17 0 0 0 1.167 1.167Zm-1.167-7a1.17 1.17 0 0 0 1.167 1.166h18.666A1.17 1.17 0 0 0 24.5 8.167 1.17 1.17 0 0 0 23.333 7H4.667A1.17 1.17 0 0 0 3.5 8.167Z"/></symbol><symbol viewBox="0 0 16 16" id="icon-telegram" xmlns="http://www.w3.org/2000/svg"><path d="M12.644 3.132s1.133-.442 1.038.631c-.031.442-.314 1.989-.535 3.662l-.755 4.955s-.063.726-.63.852c-.566.126-1.416-.442-1.574-.568-.126-.095-2.36-1.515-3.148-2.21-.22-.189-.472-.567.032-1.01l3.305-3.156c.378-.378.755-1.262-.819-.189L5.151 9.097s-.503.316-1.447.032l-2.047-.631s-.755-.474.535-.947c3.148-1.484 7.02-2.998 10.451-4.419Z"/></symbol><symbol viewBox="0 0 16 16" id="icon-tiktok" xmlns="http://www.w3.org/2000/svg"><path fill-rule="evenodd" clip-rule="evenodd" d="M9.012 1.925c.373 0 .675.302.675.675a2.7 2.7 0 0 0 2.7 2.7.675.675 0 1 1 0 1.35 4.05 4.05 0 0 1-2.7-1.032V10.7a3.375 3.375 0 1 1-3.374-3.375.675.675 0 1 1 0 1.35A2.025 2.025 0 1 0 8.338 10.7V2.6c0-.373.302-.675.675-.675Z"/></symbol><symbol viewBox="0 0 16 16" id="icon-twitter" xmlns="http://www.w3.org/2000/svg"><path d="M13.312 5.539v.374C13.312 9.68 10.559 14 5.52 14a7.416 7.416 0 0 1-4.188-1.291 5.366 5.366 0 0 0 4.054-1.171 2.66 2.66 0 0 1-1.587-.56 2.83 2.83 0 0 1-.971-1.42c.17.037.344.056.519.056.243 0 .486-.034.72-.101a2.712 2.712 0 0 1-1.578-.985 2.901 2.901 0 0 1-.616-1.803v-.037c.38.22.805.34 1.24.351a2.823 2.823 0 0 1-1.15-1.705c-.16-.7-.057-1.436.288-2.06a7.84 7.84 0 0 0 2.52 2.11c.974.513 2.04.806 3.13.862a2.475 2.475 0 0 1-.075-.651c-.02-.58.132-1.154.437-1.64a2.746 2.746 0 0 1 1.264-1.083 2.626 2.626 0 0 1 1.635-.132 2.702 2.702 0 0 1 1.41.868 5.494 5.494 0 0 0 1.74-.693c-.204.67-.639 1.24-1.221 1.598a5.559 5.559 0 0 0 1.575-.471 5.741 5.741 0 0 1-1.355 1.497Z"/></symbol><symbol viewBox="0 0 16 16" id="icon-vk" xmlns="http://www.w3.org/2000/svg"><path fill-rule="evenodd" clip-rule="evenodd" d="M1.311 4.54a.317.317 0 0 1 .261-.14h2.212c.124 0 .237.075.29.193.135.298.266.599.395.897.3.69.593 1.365.908 1.938.223.406.446.738.673.974.096.1.19.18.28.239V5.82l-.662-.867a.356.356 0 0 1-.04-.36.321.321 0 0 1 .29-.194h3.075c.178 0 .322.152.322.34v3.187c.368-.383.655-.82.918-1.288.151-.27.292-.545.435-.827l.106-.205c.18-.35.368-.709.584-1.054a.318.318 0 0 1 .268-.153h2.119c.1 0 .194.049.255.133a.356.356 0 0 1 .056.294c-.405 1.623-1.195 2.756-1.948 3.837l-.089.128c1.022.967 1.841 2.15 2.403 3.476a.357.357 0 0 1-.024.324.318.318 0 0 1-.27.155h-2.33a.312.312 0 0 1-.211-.082 6.944 6.944 0 0 1-.654-.706l-.117-.142a10.433 10.433 0 0 0-.453-.526c-.298-.315-.618-.572-1.048-.717v1.833c0 .171-.12.316-.282.337-2.614.351-4.372-1.007-5.556-2.747-1.138-1.671-1.773-3.73-2.174-5.032l-.037-.12a.356.356 0 0 1 .045-.305Zm.705.54C2.42 6.378 3.013 8.15 4 9.6c1.049 1.54 2.517 2.682 4.671 2.5v-1.953c0-.099.04-.193.112-.258a.31.31 0 0 1 .258-.078c.808.13 1.34.536 1.778 1 .172.182.334.379.488.567l.11.132c.165.198.327.386.503.557h1.696a9.58 9.58 0 0 0-2.239-2.962.354.354 0 0 1-.053-.46c.088-.13.177-.256.264-.383.682-.98 1.332-1.914 1.726-3.182h-1.512c-.162.274-.312.558-.462.851l-.102.2c-.144.282-.292.572-.45.855-.396.704-.874 1.395-1.608 1.948a.307.307 0 0 1-.335.025.343.343 0 0 1-.174-.302V5.08H6.593l.31.406c.046.06.071.136.071.214v3.42a.35.35 0 0 1-.108.254.31.31 0 0 1-.25.084c-.395-.049-.731-.273-1.017-.57-.287-.298-.543-.69-.779-1.118-.331-.603-.645-1.326-.952-2.031-.096-.223-.192-.444-.288-.659H2.016Z"/><path d="M4 9.6c-.987-1.45-1.58-3.222-1.984-4.52H3.58c.096.215.192.436.288.659.307.705.62 1.428.952 2.03.236.43.492.821.779 1.119.286.297.622.521 1.016.57a.31.31 0 0 0 .251-.084.35.35 0 0 0 .108-.254V5.7a.353.353 0 0 0-.071-.214l-.31-.406H8.67v3.577c0 .127.067.244.174.302a.307.307 0 0 0 .335-.025c.734-.553 1.212-1.244 1.607-1.948.159-.283.307-.573.45-.856l.103-.199c.15-.293.3-.577.462-.85h1.512c-.394 1.267-1.044 2.201-1.726 3.181a86.83 86.83 0 0 0-.264.382.354.354 0 0 0 .053.46 9.58 9.58 0 0 1 2.239 2.963H11.92a7.05 7.05 0 0 1-.503-.557 35.681 35.681 0 0 1-.11-.132 11.327 11.327 0 0 0-.488-.567c-.438-.464-.97-.87-1.778-1a.31.31 0 0 0-.258.078.349.349 0 0 0-.112.258V12.1c-2.154.182-3.622-.96-4.671-2.5Z"/></symbol><symbol viewBox="0 0 16 16" id="icon-youtube" xmlns="http://www.w3.org/2000/svg"><path d="m6.667 10 3.46-2-3.46-2v4Zm7.706-5.22c.087.313.147.733.187 1.267.047.533.067.993.067 1.393l.04.56c0 1.46-.107 2.533-.294 3.22-.166.6-.553.987-1.153 1.153-.313.087-.887.147-1.767.187-.866.047-1.66.067-2.393.067l-1.06.04c-2.793 0-4.533-.107-5.22-.294-.6-.166-.987-.553-1.153-1.153-.087-.313-.147-.733-.187-1.267a16.039 16.039 0 0 1-.067-1.393L1.333 8c0-1.46.107-2.533.294-3.22.166-.6.553-.987 1.153-1.153.313-.087.887-.147 1.767-.187a44.43 44.43 0 0 1 2.393-.067L8 3.333c2.793 0 4.533.107 5.22.294.6.166.987.553 1.153 1.153Z"/></symbol></svg>